<?xml version="1.0" encoding="UTF-8" standalone="no"?>
<!DOCTYPE svg PUBLIC "-//W3C//DTD SVG 1.1//EN" "http://www.w3.org/Graphics/SVG/1.1/DTD/svg11.dtd">
<svg width="100%" height="100%" viewBox="0 0 620 660" version="1.1" xmlns="http://www.w3.org/2000/svg" xmlns:xlink="http://www.w3.org/1999/xlink" xml:space="preserve" xmlns:serif="http://www.serif.com/" style="fill-rule:evenodd;clip-rule:evenodd;stroke-linecap:round;stroke-linejoin:round;stroke-miterlimit:1.5;">
    <g transform="matrix(1,0,0,1,-1378.544538,-7315.302509)">
        <g transform="matrix(1.383291,0,0,1.383291,2947.378307,718.287824)">
            <g transform="matrix(2.793027,0.200704,-0.200704,2.793027,-9438.783012,1282.420047)">
                <path d="M3198.929,1156.91C3198.929,1156.91 3103.813,1125.091 3127.357,1077.062C3127.357,1077.062 3205.835,1109.081 3207.405,1103.117C3208.974,1097.152 3201.1,1002.036 3069.91,1037.195C3069.91,1037.195 3076.214,1040.02 3073.703,1043.473C3071.192,1046.926 3040.114,1099.114 3069.622,1115.752C3073.332,1117.844 3077.42,1120.174 3081.766,1122.693C3111.989,1140.208 3154.745,1166.857 3170.389,1186.069C3170.389,1186.069 3191.997,1186.14 3198.929,1156.91Z" style="fill:rgb(255,109,31);stroke:rgb(255,109,31);stroke-width:10.11px;"/>
            </g>
        </g>
        <g transform="matrix(1.383291,0,0,1.383291,2947.378307,718.287824)">
            <g transform="matrix(0.636682,0.044536,-0.035732,0.510817,-3369.852281,2986.156851)">
                <path d="M4343.316,3672.926C4341.573,3672.52 4185.001,3598.96 4180.278,3604.71C4169.707,3617.581 4194.519,3681.039 4351.969,3769.495L4343.316,3672.926Z" style="fill:rgb(255,109,31);stroke:rgb(255,109,31);stroke-width:28.63px;"/>
            </g>
        </g>
    </g>
</svg>
